Bikkar Bai Sentimental 2013 Hindi Punjabi Movies DvDScr Sample Included ~ rDX

Screen Shots :
 
http://myimghosting.serveftp.com/13/BikkarBaiSentimental.html
 
http://myimghost.cwahi.net/BikkarBaiSentimental.html


Format                                   : AVI
Format/Info                              : Audio Video Interleave
File size                                : 617 MiB
Duration                                 : 1h 59mn
Overall bit rate                         : 723 Kbps

Video
ID                                       : 0
Format                                   : MPEG-4 Visual
Format profile                           : Simple@L3
Format settings, BVOP                    : No
Format settings, QPel                    : No
Format settings, GMC                     : No warppoints
Format settings, Matrix                  : Default (H.263)
Codec ID                                 : XVID
Codec ID/Hint                            : XviD
Duration                                 : 1h 59mn
Bit rate                                 : 589 Kbps
Width                                    : 608 pixels
Height                                   : 288 pixels
Display aspect ratio                     : 2.111
Frame rate                               : 23.976 fps
Color space                              : YUV
Chroma subsampling                       : 4:2:0
Bit depth                                : 8 bits
Scan type                                : Progressive
Compression mode                         : Lossy
Bits/(Pixel*Frame)                       : 0.140
Stream size                              : 502 MiB (81%)
Writing library                          : ZJMedia MPEG Encoder

Audio
ID                                       : 1
Format                                   : MPEG Audio
Format version                           : Version 1
Format profile                           : Layer 3
Mode                                     : Joint stereo
Mode extension                           : MS Stereo
Codec ID                                 : 55
Codec ID/Hint                            : MP3
Duration                                 : 1h 59mn
Bit rate mode                            : Constant
Bit rate                                 : 128 Kbps
Channel(s)                               : 2 channels
Sampling rate                            : 44.1 KHz
Compression mode                         : Lossy
Stream size                              : 109 MiB (18%)
Alignment                                : Split accross interleaves
Interleave, duration                     : 959 ms (23.00 video frames)